<svg width="22" height="22" viewBox="0 0 22 22" fill="none" xmlns="http://www.w3.org/2000/svg">
<path d="M7.33334 15.5834L11 19.25L14.6667 15.5834" stroke="white" stroke-width="1.4" stroke-linecap="round" stroke-linejoin="round"/>
<path d="M11 11V19.25" stroke="white" stroke-width="1.4" stroke-linecap="round" stroke-linejoin="round"/>
<path d="M19.14 16.5825C19.9369 16.0221 20.5346 15.2223 20.8462 14.2992C21.1578 13.3762 21.1671 12.3778 20.8729 11.449C20.5786 10.5203 19.996 9.70945 19.2097 9.13421C18.4234 8.55898 17.4743 8.24927 16.5 8.25003H15.345C15.0693 7.17558 14.5534 6.17767 13.8363 5.33144C13.1191 4.4852 12.2193 3.81269 11.2046 3.36452C10.1899 2.91636 9.08677 2.70422 7.97823 2.74409C6.86969 2.78395 5.78464 3.07478 4.80476 3.59467C3.82488 4.11456 2.97571 4.84997 2.32117 5.74554C1.66664 6.64111 1.2238 7.67349 1.02599 8.76497C0.82818 9.85645 0.880559 10.9786 1.17918 12.0469C1.4778 13.1152 2.01489 14.1018 2.75 14.9325" stroke="white" stroke-width="1.4" stroke-linecap="round" stroke-linejoin="round"/>
</svg>
