<svg width="22" height="22" viewBox="0 0 22 22" fill="none" xmlns="http://www.w3.org/2000/svg">
<path d="M14.6666 20.1912V16.6437C14.701 16.2066 14.642 15.7672 14.4934 15.3547C14.3448 14.9422 14.1102 14.566 13.805 14.2512C16.6833 13.9304 19.7083 12.8395 19.7083 7.83455C19.7081 6.55472 19.2158 5.32398 18.3333 4.39705C18.7512 3.27734 18.7216 2.0397 18.2508 0.941213C18.2508 0.941213 17.1691 0.62038 14.6666 2.29788C12.5657 1.72847 10.351 1.72847 8.24998 2.29788C5.74748 0.62038 4.66581 0.941213 4.66581 0.941213C4.19499 2.0397 4.16544 3.27734 4.58331 4.39705C3.69426 5.33085 3.20146 6.57272 3.20831 7.86205C3.20831 12.8304 6.23331 13.9212 9.11164 14.2787C8.81006 14.5904 8.57747 14.962 8.42901 15.3695C8.28055 15.7769 8.21955 16.2111 8.24998 16.6437V20.1912M8.24998 17.4412C3.66665 18.8162 3.66665 15.1495 1.83331 14.6912L8.24998 17.4412Z" stroke="white" stroke-width="1.4" stroke-linecap="round" stroke-linejoin="round"/>
</svg>
