<svg width="23" height="22" viewBox="0 0 23 22" fill="none" xmlns="http://www.w3.org/2000/svg">
<path d="M15.5061 7.33335C16.9648 7.33335 18.3638 7.91281 19.3952 8.94426C20.4267 9.97571 21.0061 11.3747 21.0061 12.8333V19.25H17.3395V12.8333C17.3395 12.3471 17.1463 11.8808 16.8025 11.537C16.4587 11.1932 15.9924 11 15.5061 11C15.0199 11 14.5536 11.1932 14.2098 11.537C13.866 11.8808 13.6728 12.3471 13.6728 12.8333V19.25H10.0061V12.8333C10.0061 11.3747 10.5856 9.97571 11.617 8.94426C12.6485 7.91281 14.0474 7.33335 15.5061 7.33335V7.33335Z" stroke="white" stroke-width="1.4" stroke-linecap="round" stroke-linejoin="round"/>
<path d="M6.33949 8.25002H2.67282V19.25H6.33949V8.25002Z" stroke="white" stroke-width="1.4" stroke-linecap="round" stroke-linejoin="round"/>
<path d="M4.50615 5.50001C5.51868 5.50001 6.33949 4.6792 6.33949 3.66668C6.33949 2.65416 5.51868 1.83335 4.50615 1.83335C3.49363 1.83335 2.67282 2.65416 2.67282 3.66668C2.67282 4.6792 3.49363 5.50001 4.50615 5.50001Z" stroke="white" stroke-width="1.4" stroke-linecap="round" stroke-linejoin="round"/>
</svg>
